# xmcd
#
# Track frame offsets: 
#        150
#        12889
#        33028
#        54994
#        70905
#        93158
#        118115
#        132632
#        152223
#        175510
#        200089
#        216815
#        237045
#        255285
#        276803
#
# Disc length: 3956 seconds
#
# Revision: 0
# Processed by: cddbd v1.5.2PL0 Copyright (c) Steve Scherf et al.
# Submitted via: ExactAudioCopy v0.95b4
#
DISCID=c60f720f
DTITLE=Various Artist - Blueskrieg
DYEAR=1900
DGENRE=Blues
TTITLE0=Plug - Tumbling Down The Devil's Game
TTITLE1=Plug - Byahero
TTITLE2=Plug - Blooze
TTITLE3=Snakecharmer - Zalman Knew
TTITLE4=Snakecharmer - My Slow Draggin' Week
TTITLE5=Snakecharmer - Suklob
TTITLE6=Firebottle - Bakit Nagkaganito
TTITLE7=Firebottle - Di Na Lang Sana
TTITLE8=Firebottle - Kalbaryo
TTITLE9=Dahon - Controlling The Evil
TTITLE10=Dahon - Monster Within Me
TTITLE11=Dahon - Lipad Pilip Lipad
TTITLE12=Kulukati - Sa Gabi Sa Umaga
TTITLE13=Kulukati - Selda Katorse
TTITLE14=Kulukati - Taga Sa Bato
EXTD=
EXTT0=
EXTT1=
EXTT2=
EXTT3=
EXTT4=
EXTT5=
EXTT6=
EXTT7=
EXTT8=
EXTT9=
EXTT10=
EXTT11=
EXTT12=
EXTT13=
EXTT14=
PLAYORDER=
